<svg width="772" height="481" viewBox="0 0 772 481" fill="none" xmlns="http://www.w3.org/2000/svg">
<g filter="url(#filter0_dd_1_4)">
<path d="M5 1H767V471C767 471 618 369 566 389C514 409 446 471 388 471C330 471 235 378 176 378C117 378 5 471 5 471V1Z" fill="url(#paint0_linear_1_4)" style="mix-blend-mode:multiply"/>
<path d="M5 1V0.5H4.5V1H5ZM767 1H767.5V0.5H767V1ZM767 471L766.718 471.413L767.5 471.948V471H767ZM5 471H4.5V472.065L5.31942 471.385L5 471ZM5 1.5H767V0.5H5V1.5ZM766.5 1V471H767.5V1H766.5ZM767 471C767.282 470.587 767.282 470.587 767.281 470.586C767.279 470.585 767.278 470.584 767.275 470.583C767.271 470.579 767.264 470.575 767.255 470.569C767.237 470.556 767.209 470.538 767.173 470.513C767.101 470.464 766.994 470.391 766.852 470.294C766.568 470.101 766.146 469.816 765.593 469.444C764.488 468.701 762.86 467.615 760.771 466.239C756.593 463.487 750.566 459.578 743.171 454.951C728.384 445.697 708.122 433.565 686.233 422.057C664.346 410.551 640.817 399.661 619.495 392.898C608.834 389.517 598.712 387.163 589.615 386.284C580.521 385.404 572.42 385.995 565.821 388.533L566.179 389.467C572.58 387.005 580.51 386.408 589.518 387.279C598.523 388.149 608.572 390.483 619.193 393.852C640.433 400.589 663.904 411.449 685.767 422.943C707.628 434.435 727.866 446.553 742.641 455.799C750.028 460.422 756.048 464.326 760.221 467.074C762.308 468.448 763.932 469.533 765.035 470.274C765.586 470.645 766.007 470.93 766.29 471.122C766.432 471.218 766.539 471.291 766.61 471.339C766.646 471.364 766.673 471.382 766.691 471.394C766.7 471.4 766.706 471.405 766.711 471.408C766.713 471.41 766.715 471.411 766.716 471.411C766.717 471.412 766.718 471.413 767 471ZM565.821 388.533C552.78 393.549 538.75 401.192 524.152 409.82C516.851 414.134 509.402 418.699 501.86 423.308C494.317 427.917 486.68 432.571 478.997 437.068C448.241 455.072 416.849 470.5 388 470.5V471.5C417.151 471.5 448.759 455.928 479.503 437.932C487.195 433.429 494.839 428.77 502.382 424.161C509.926 419.551 517.368 414.991 524.661 410.68C539.25 402.058 553.22 394.451 566.179 389.467L565.821 388.533ZM388 470.5C373.617 470.5 356.89 464.73 338.921 456.019C320.962 447.312 301.827 435.701 282.634 424.072C263.451 412.45 244.211 400.812 226.076 392.081C207.95 383.354 190.866 377.5 176 377.5V378.5C190.634 378.5 207.55 384.271 225.642 392.982C243.726 401.688 262.924 413.3 282.116 424.928C301.298 436.549 320.475 448.188 338.485 456.919C356.485 465.645 373.383 471.5 388 471.5V470.5ZM176 377.5C161.139 377.5 142.995 383.35 124.18 392.078C105.353 400.811 85.7988 412.45 68.1004 424.082C50.4003 435.715 34.5467 447.348 23.1185 456.071C17.4042 460.433 12.7957 464.068 9.61533 466.614C8.02515 467.886 6.79198 468.886 5.9561 469.568C5.53816 469.909 5.21954 470.171 5.00527 470.347C4.89814 470.435 4.8171 470.502 4.76277 470.547C4.73561 470.57 4.71513 470.587 4.7014 470.598C4.69454 470.604 4.68937 470.608 4.6859 470.611C4.68416 470.612 4.68283 470.613 4.68196 470.614C4.68106 470.615 4.68058 470.615 5 471C5.31942 471.385 5.31979 471.384 5.3206 471.384C5.32144 471.383 5.32267 471.382 5.32434 471.381C5.32768 471.378 5.33272 471.374 5.33945 471.368C5.35292 471.357 5.37313 471.34 5.40003 471.318C5.45382 471.273 5.53432 471.207 5.6409 471.119C5.85407 470.944 6.17156 470.683 6.58834 470.343C7.42189 469.663 8.65259 468.665 10.2401 467.394C13.4153 464.853 18.0177 461.223 23.7253 456.866C35.1408 448.152 50.9747 436.535 68.6496 424.918C86.3262 413.3 105.835 401.689 124.601 392.985C143.38 384.275 161.361 378.5 176 378.5V377.5ZM5.5 471V1H4.5V471H5.5Z" fill="#442D2D"/>
</g>
<defs>
<filter id="filter0_dd_1_4" x="0.5" y="0.5" width="771" height="479.565" filterUnits="userSpaceOnUse" color-interpolation-filters="sRGB">
<feFlood flood-opacity="0" result="BackgroundImageFix"/>
<feColorMatrix in="SourceAlpha" type="matrix" values="0 0 0 0 0 0 0 0 0 0 0 0 0 0 0 0 0 0 127 0" result="hardAlpha"/>
<feOffset dy="4"/>
<feGaussianBlur stdDeviation="2"/>
<feComposite in2="hardAlpha" operator="out"/>
<feColorMatrix type="matrix" values="0 0 0 0 0 0 0 0 0 0 0 0 0 0 0 0 0 0 0.25 0"/>
<feBlend mode="normal" in2="BackgroundImageFix" result="effect1_dropShadow_1_4"/>
<feColorMatrix in="SourceAlpha" type="matrix" values="0 0 0 0 0 0 0 0 0 0 0 0 0 0 0 0 0 0 127 0" result="hardAlpha"/>
<feOffset dy="4"/>
<feGaussianBlur stdDeviation="2"/>
<feComposite in2="hardAlpha" operator="out"/>
<feColorMatrix type="matrix" values="0 0 0 0 0 0 0 0 0 0 0 0 0 0 0 0 0 0 0.25 0"/>
<feBlend mode="normal" in2="effect1_dropShadow_1_4" result="effect2_dropShadow_1_4"/>
<feBlend mode="normal" in="SourceGraphic" in2="effect2_dropShadow_1_4" result="shape"/>
</filter>
<linearGradient id="paint0_linear_1_4" x1="386" y1="1" x2="386" y2="471" gradientUnits="userSpaceOnUse">
<stop stop-color="#3B37F0"/>
<stop offset="1" stop-color="#37C4F0" stop-opacity="0"/>
</linearGradient>
</defs>
</svg>
